<svg width="220" height="55" viewBox="0 0 220 55" fill="none" xmlns="http://www.w3.org/2000/svg">
<g clip-path="url(#clip0_1659_2033)">
<path d="M12.7117 15.3611L0 2.64941V51.9926L12.7117 39.2809V15.3611Z" fill="#FF0000"/>
<path d="M39.9508 9.16174L30.8711 0.0820312H2.5679L15.2793 12.7937H36.3191V20.9654L32.0806 24.144V30.4985L36.3191 33.6771V41.8488H15.2793L2.5679 54.5605H30.8711L39.9508 45.4808V31.8611L33.8966 27.3212L39.9508 22.7814V9.16174Z" fill="#FF0000"/>
<path d="M54.3635 14.4902C53.229 15.6247 52.662 17.1321 52.6625 19.0124V35.6083C52.6625 37.4897 53.2295 38.9971 54.3635 40.1306C55.4973 41.2651 57.0048 41.8322 58.8859 41.8317H71.955V37.2679H60.5454C58.609 37.2679 57.6409 36.2998 57.6412 34.3636V20.2572C57.6412 18.3214 58.6092 17.3533 60.5454 17.3529H71.955V12.7891H58.8859C57.0045 12.7891 55.4971 13.3561 54.3635 14.4902Z" fill="white"/>
<path d="M103.901 12.7891H99.1299V17.9753H103.901V12.7891Z" fill="white"/>
<path d="M103.901 20.8799H99.1299V41.832H103.901V20.8799Z" fill="white"/>
<path d="M114.273 12.7891H109.502V41.8317H114.273V12.7891Z" fill="white"/>
<path d="M124.853 12.7891H120.081V41.8317H124.853V12.7891Z" fill="white"/>
<path d="M149.206 27.7252C148.664 27.3001 148.066 26.9511 147.429 26.6881V26.4806C147.97 26.2577 148.472 25.9496 148.916 25.5679C150.161 24.545 150.783 23.0513 150.783 21.0869V19.0124C150.783 17.1319 150.216 15.6245 149.082 14.4902C147.948 13.3563 146.44 12.7893 144.56 12.7891H131.076V41.8317H145.182C147.063 41.8317 148.57 41.2647 149.704 40.1306C150.838 38.9969 151.405 37.4895 151.406 35.6083V32.4966C151.406 30.3949 150.673 28.8044 149.206 27.7252ZM136.054 17.353H142.9C144.836 17.353 145.804 18.3211 145.804 20.2573V21.7093C145.804 23.6459 144.836 24.614 142.9 24.6137H136.054V17.353ZM146.427 34.3636C146.427 36.3001 145.459 37.2682 143.522 37.2679H136.054V29.1775H143.522C145.458 29.1775 146.426 30.1455 146.427 32.0816V34.3636Z" fill="white"/>
<path d="M167.172 20.8799H157.007V25.2363H165.304C166.964 25.2363 167.794 26.066 167.794 27.7255V28.9703H160.741C159.164 28.9703 157.871 29.4751 156.862 30.4847C155.851 31.4945 155.346 32.7876 155.347 34.3638V36.8532C155.347 38.4299 155.852 39.723 156.862 40.7326C157.871 41.7426 159.164 42.2474 160.741 42.2469H163.645C164.996 42.2684 166.309 41.7964 167.337 40.9193C167.73 40.5959 168.102 40.2477 168.45 39.8768H168.658L169.246 41.832H172.565V26.2734C172.565 24.6969 172.06 23.4038 171.051 22.3941C170.041 21.3848 168.748 20.8801 167.172 20.8799ZM167.794 34.5713C167.794 35.6227 167.504 36.4387 166.923 37.0193C166.342 37.5998 165.526 37.8902 164.475 37.8905H162.4C160.879 37.8905 160.118 37.1299 160.118 35.6086V35.1937C160.118 33.8109 160.879 33.1194 162.4 33.1192H167.794V34.5713Z" fill="white"/>
<path d="M187.708 29.7988L182.937 28.7624C181.83 28.5696 181.277 27.9472 181.278 26.8953C181.278 25.7885 181.831 25.2354 182.937 25.236H191.857V20.8789H181.899C180.323 20.8789 179.03 21.3838 178.02 22.3937C177.01 23.4041 176.505 24.697 176.506 26.2723V27.5164C176.491 28.8064 176.983 30.0507 177.876 30.9817C178.842 31.9939 180.107 32.6703 181.485 32.9118L186.256 33.9482C187.363 34.1429 187.916 34.7653 187.915 35.8152C187.915 36.9221 187.362 37.4753 186.256 37.4746H176.506V41.8317H187.294C188.87 41.8317 190.163 41.3268 191.173 40.3169C192.182 39.3083 192.687 38.0154 192.688 36.4382V35.1923C192.702 33.903 192.21 32.6595 191.318 31.7289C190.35 30.7179 189.086 30.0418 187.708 29.7988Z" fill="white"/>
<path d="M214.054 33.5344V25.8586C214.055 25.1499 213.917 24.4479 213.646 23.7929C213.376 23.1379 212.978 22.5428 212.477 22.0417C211.976 21.5406 211.381 21.1433 210.726 20.8728C210.071 20.6023 209.369 20.4637 208.66 20.4652H201.607C200.893 20.4492 200.184 20.5811 199.524 20.8524C198.863 21.1237 198.266 21.5286 197.769 22.0417C197.265 22.5395 196.867 23.1345 196.6 23.7906C196.332 24.4467 196.201 25.1503 196.213 25.8587V36.4385C196.203 37.1498 196.335 37.856 196.602 38.5152C196.869 39.1745 197.266 39.7734 197.769 40.2764C198.272 40.7794 198.871 41.1763 199.53 41.4435C200.19 41.7108 200.896 41.8429 201.607 41.8322H213.224V37.4758H203.474C201.815 37.4758 200.985 36.646 200.985 34.9864V33.5344H214.054ZM200.985 27.3109C200.985 25.6512 201.815 24.8214 203.474 24.8215H206.793C208.453 24.8215 209.283 25.6513 209.283 27.3109V29.3854H200.985V27.3109Z" fill="white"/>
<path d="M88.3429 20.4647H85.0363C83.7462 20.4216 82.4871 20.8659 81.5098 21.7093C81.4316 21.7728 81.3603 21.8402 81.2882 21.9071V21.9014H81.0821V12.7891H76.3109V41.8317H81.0821V28.3476C81.0821 25.997 82.2577 24.8215 84.6089 24.8211H86.4759C88.1354 24.8211 88.9652 25.6509 88.9653 27.3105V41.8317H93.7366V25.8582C93.7366 24.2817 93.2318 22.9886 92.2222 21.979C91.2122 20.9696 89.919 20.4648 88.3429 20.4647Z" fill="white"/>
<path fill-rule="evenodd" clip-rule="evenodd" d="M216.532 19.7322C218.083 19.7322 219.341 18.4743 219.341 16.9227C219.341 15.3711 218.083 14.1133 216.532 14.1133C214.98 14.1133 213.722 15.3711 213.722 16.9227C213.722 18.4743 214.98 19.7322 216.532 19.7322ZM216.532 20.2673C218.379 20.2673 219.876 18.7699 219.876 16.9227C219.876 15.0756 218.379 13.5781 216.532 13.5781C214.684 13.5781 213.187 15.0756 213.187 16.9227C213.187 18.7699 214.684 20.2673 216.532 20.2673Z" fill="white"/>
<path d="M215.812 16.8932H217.188V16.0665H215.812V16.8932ZM217.736 18.2606H217.188V17.9902L216.912 17.712L216.636 17.4417H215.812V18.2606H215.261V15.518H217.464L217.736 15.7962V17.1674L217.464 17.4417L217.736 17.712V18.2606Z" fill="white"/>
</g>
<defs>
<clipPath id="clip0_1659_2033">
<rect width="220" height="55" fill="white"/>
</clipPath>
</defs>
</svg>
