<svg xmlns="http://www.w3.org/2000/svg" fill="none" viewBox="0 0 170 40" height="40" width="170">
<g id="Frame 1171274302">
<g id="Group">
<path stroke-miterlimit="10" stroke-width="1.5" stroke="black" fill="black" d="M154.963 9.275L153.559 11.075L151.922 9.275C151.844 9.2 151.688 9.125 151.532 9.125H148.335C148.257 9.125 148.179 9.05 148.179 8.975L148.569 7.025C148.725 6.2 148.101 5.45 147.244 5.45H137.03C136.406 5.45 135.86 5.9 135.704 6.5L135.158 8.975C135.158 9.05 135.08 9.125 135.002 9.05C134.301 8.825 133.521 8.75 132.741 8.75C131.806 8.75 130.87 8.825 130.09 9.05C130.012 9.05 129.934 8.975 129.934 8.9C130.012 8.525 130.246 7.4 130.402 6.575C130.558 5.975 130.09 5.45 129.466 5.45L118.863 5.375C118.239 5.375 117.693 5.825 117.537 6.425L116.991 8.9C116.991 8.975 116.913 9.05 116.835 8.975C116.134 8.75 115.354 8.675 114.574 8.675C111.767 8.675 109.506 9.5 107.713 11.15C107.635 11.225 107.557 11.225 107.557 11.15C105.841 9.425 103.268 8.525 99.8378 8.525C96.7189 8.525 94.3798 9.2 92.5865 10.25C92.5085 10.25 92.5085 10.25 92.4306 10.25C92.2746 9.95 92.0407 9.65 91.8068 9.425C88.9219 5.9 84.0878 5 80.1113 5H62.49C61.0865 5 59.6051 5.375 58.4355 6.05H58.3576H48.1434C46.662 6.05 45.3365 7.1 45.0246 8.525L44.7907 10.85C44.7907 10.925 44.6348 11 44.6348 10.925C41.8278 9.35 38.787 9.275 38.3192 9.275C35.7462 9.275 32.7833 9.575 30.3662 11.225C30.2882 11.225 30.2103 11.225 30.2103 11.225C29.8204 10.475 29.2746 9.725 28.5729 9.05C26.9355 7.475 24.0506 5.525 19.0605 5.525C12.433 5.525 7.05309 9.8 5.25977 16.475C5.25977 16.475 5.25977 16.475 5.25977 16.55L4.48007 17C2.99863 17.825 1.7511 19.175 1.28328 20.825C0.737491 22.625 0.971402 24.5 2.06299 26.075L4.86992 30.275C6.58526 32.9 9.54813 34.475 12.8229 34.475L127.439 34.1H127.517L128.453 35H128.531H146.776C150.518 35 153.949 33.05 155.742 29.975L166.97 11C167.516 10.175 166.814 9.05 165.801 9.05H155.275C155.119 9.125 155.041 9.2 154.963 9.275ZM67.2462 19.4L65.8427 25.775C65.8427 25.85 65.7647 25.85 65.6868 25.85H64.6731C64.5952 25.85 64.5172 25.775 64.5172 25.7L65.9207 19.325C65.9207 19.25 65.9986 19.25 66.0766 19.25H67.0902C67.2462 19.25 67.3241 19.325 67.2462 19.4Z" id="Vector"></path>
<g id="Group_2">
<path fill="white" d="M18.1259 17.0001H27.8722L25.5331 27.3501H19.6073L20.0752 25.1001C20.0752 25.1001 18.2039 27.6501 14.4613 27.8001C14.4613 27.7251 14.3833 27.6501 14.3833 27.6501L13.5257 21.0501C13.4477 20.3001 12.9799 19.5501 12.3561 19.1001L10.4848 17.7501C9.70512 17.1501 8.6915 17.0001 7.75586 17.3001C8.92541 12.7251 12.4341 8.2251 18.6717 8.2251C26.0009 8.2251 28.1841 13.1751 28.0281 15.8001H21.4786C21.4786 15.8001 21.3227 12.8751 18.8276 12.8751C16.2546 12.8751 15.0071 15.8001 14.5393 18.4251C14.0715 21.1251 14.7732 23.6001 16.9564 23.6001C19.1395 23.6001 20.7769 20.6001 20.7769 20.6001H17.4242L18.1259 17.0001Z" id="Vector_2"></path>
<path fill="white" d="M35.5923 27.95C37.6195 27.95 43.7792 27.5 45.3386 19.925C46.898 12.05 38.0094 12.05 38.0094 12.05C33.0972 12.05 29.4326 13.4 27.8732 20.075C26.2358 26.6 33.5651 27.95 35.5923 27.95ZM34.2668 19.775C35.1245 15.6501 37.4636 16.0251 37.4636 16.0251C37.4636 16.0251 39.5688 16.025 39.1009 18.95C38.1653 24.125 35.9042 23.75 35.9042 23.75C35.9042 23.75 33.4091 23.975 34.2668 19.775Z" id="Vector_3"></path>
<path fill="white" d="M50.6394 27.275L54.6158 8.75H48.0663L44.0898 27.275H50.6394Z" id="Vector_4"></path>
<path fill="white" d="M79.9585 8.1499H72.9412L70.9919 17.0749L68.8867 26.6749H79.8805C79.8805 26.6749 87.9115 26.9749 90.0946 18.2749C92.5897 8.6749 84.4028 8.1499 79.9585 8.1499ZM83.779 16.0249L83.2332 19.0249C82.8434 20.8249 81.206 22.1749 79.2568 22.1749H76.9177L78.9449 12.7249H80.9721C82.7654 12.7249 84.0909 14.2999 83.779 16.0249Z" id="Vector_5"></path>
<path fill="white" d="M53.5996 16.025H57.0303L54.6132 27.275H61.1627L63.5798 16.025H67.6343L68.336 12.425H64.2815L64.4375 11.75C64.5155 11.45 64.7494 11.3 65.0612 11.3H68.8038L69.5056 7.69995H62.3323C60.3051 7.69995 58.5117 9.04995 58.1219 11L57.81 12.425H54.3793L53.5996 16.025Z" id="Vector_6"></path>
<path fill="white" d="M122.761 26.6L126.738 8.07495H120.188L118.863 14.15C118.473 13.325 117.147 11.375 114.496 11.375C111.221 11.375 107.869 12.8 106.621 20C105.374 27.2 112.001 27.125 112.001 27.125C112.001 27.125 114.574 27.125 116.523 24.95L116.134 26.6H122.761ZM114.73 23.225C112.469 23.225 113.093 19.325 113.093 19.325C113.093 19.325 113.716 15.35 116.212 15.35C118.473 15.35 118.005 18.2 117.849 18.875V19.025C117.771 19.4 116.835 23.225 114.73 23.225Z" id="Vector_7"></path>
<path fill="white" d="M104.515 26.6L106.464 17.6C106.464 17.6 108.101 11.3 99.7584 11.3C91.4156 11.3 90.8698 17.075 90.8698 17.075H96.6396C96.6396 17.075 97.0294 15.2 99.2906 15.2C100.304 15.2 100.46 15.8 100.46 16.175C100.46 16.55 100.148 17.4501 97.9651 17.9001C95.7819 18.3501 89.2324 18.725 89.2324 23.45C89.2324 27.2 93.7547 27.2 93.7547 27.2C93.7547 27.2 96.8735 27.35 98.199 25.475L97.9651 26.675H104.515V26.6ZM96.7955 23.7501C95.548 23.7501 95.3921 23.0751 95.3921 22.475C95.3921 21.875 95.9379 21.0501 97.8871 20.5251C98.5889 20.3001 99.0567 20.1501 99.4465 20.0001L98.7448 23.3C98.6668 23.225 98.0431 23.7501 96.7955 23.7501Z" id="Vector_8"></path>
<g id="Group_3">
<path fill="white" d="M155.979 11.75L151.223 20.6749L150.287 11.75H144.05L144.829 8.07495H138.28L136.954 14.15C136.564 13.325 135.239 11.375 132.588 11.375C129.313 11.375 125.961 12.8 124.713 20C123.465 27.1999 130.093 27.1249 130.093 27.1249C130.093 27.1249 132.666 27.1249 134.615 24.9499L134.225 26.5999H140.775L143.738 12.725L146.467 26.9C146.545 27.5 146.155 28.025 145.531 28.025L125.805 28.3249L129.391 31.775H146.389C148.962 31.775 151.379 30.4249 152.704 28.2499L162.373 11.825H155.979V11.75ZM136.019 18.875V19.025C135.941 19.4 135.005 23.2249 132.9 23.2249C130.639 23.2249 131.262 19.3249 131.262 19.3249C131.262 19.3249 131.886 15.35 134.381 15.35C136.564 15.35 136.097 18.2 136.019 18.875Z" id="Vector_9"></path>
<path fill="white" d="M15.2417 28.925C14.462 28.925 13.8383 28.4 13.6823 27.65L12.8247 21.05C12.7467 20.45 12.4348 19.925 11.967 19.625L10.0957 18.35C9.316 17.825 8.30238 17.75 7.44471 18.2L5.33951 19.4C3.62417 20.375 3.07837 22.475 4.16996 24.125L6.97689 28.325C8.14644 30.05 10.0957 31.1 12.2789 31.1L128.533 30.725L129.546 31.7L125.96 28.25L15.2417 28.925ZM9.86179 28.625H9.78382C9.70585 28.625 9.62788 28.625 9.62788 28.55L6.35313 22.25C6.27516 22.175 6.35313 22.1 6.4311 22.025C6.50907 21.95 6.58704 22.025 6.66501 22.1L9.93976 28.4C9.93976 28.475 9.93976 28.55 9.86179 28.625ZM11.3432 29.225H11.2653C11.1873 29.225 11.1093 29.225 11.1093 29.15L7.05486 21.35C6.97689 21.275 7.05486 21.2 7.13283 21.125C7.2108 21.05 7.28877 21.125 7.36674 21.2L11.4212 29C11.4992 29.075 11.4212 29.15 11.3432 29.225ZM11.6551 27.65H11.5771C11.4992 27.65 11.4212 27.65 11.4212 27.575L7.75659 20.525C7.67862 20.45 7.75659 20.3 7.83456 20.3C7.91253 20.225 7.9905 20.3 8.06847 20.375L11.7331 27.425C11.811 27.5 11.7331 27.575 11.6551 27.65ZM11.811 25.55H11.7331C11.6551 25.55 11.5771 25.55 11.5771 25.475L9.00412 20.525C8.92615 20.45 9.00412 20.3 9.08209 20.3C9.16006 20.225 9.316 20.3 9.316 20.375L11.889 25.325C11.889 25.4 11.889 25.475 11.811 25.55Z" id="Vector_10"></path>
</g>
</g>
<g id="Group_4">
<path fill="white" d="M18.124 16.9999H27.8702L25.5311 27.3499H19.6054L20.0732 25.0999C20.0732 25.0999 18.2019 27.6499 14.4594 27.7999C14.4594 27.7249 14.3814 27.6499 14.3814 27.6499L13.5237 21.0499C13.4457 20.2999 12.9779 19.5499 12.3542 19.0999L10.4829 17.7499C9.70316 17.1499 8.68955 16.9999 7.75391 17.2999C8.92346 12.7249 12.4321 8.22485 18.6697 8.22485C25.999 8.22485 28.1821 13.1749 28.0262 15.7999H21.4767C21.4767 15.7999 21.3207 12.8749 18.8257 12.8749C16.2527 12.8749 15.0051 15.7999 14.5373 18.4249C14.0695 21.1249 14.7712 23.5999 16.9544 23.5999C19.1376 23.5999 20.7749 20.5999 20.7749 20.5999H17.4222L18.124 16.9999Z" id="Vector_11"></path>
<path fill="white" d="M35.5903 27.95C37.6176 27.95 43.7772 27.5 45.3366 19.925C46.896 12.05 38.0074 12.05 38.0074 12.05C33.0953 12.05 29.4307 13.4 27.8713 20.075C26.2339 26.6 33.5631 27.95 35.5903 27.95ZM34.2648 19.775C35.1225 15.6501 37.4616 16.0251 37.4616 16.0251C37.4616 16.0251 39.5668 16.025 39.099 18.95C38.1633 24.125 35.9022 23.75 35.9022 23.75C35.9022 23.75 33.4072 23.975 34.2648 19.775Z" id="Vector_12"></path>
<path fill="white" d="M50.6374 27.275L54.6139 8.75H48.0644L44.0879 27.275H50.6374Z" id="Vector_13"></path>
<path fill="white" d="M53.6016 16.025H57.0323L54.6152 27.275H61.1647L63.5818 16.025H67.6362L68.338 12.425H64.2835L64.4394 11.75C64.5174 11.45 64.7513 11.3 65.0632 11.3H68.8058L69.5075 7.69995H62.3342C60.307 7.69995 58.5137 9.04995 58.1238 11L57.812 12.425H54.3813L53.6016 16.025Z" id="Vector_14"></path>
</g>
</g>
</g>
</svg>
