<svg xmlns="http://www.w3.org/2000/svg" viewBox="-288 204 422 594">
  <g>
    <g transform="matrix(1,0,0,1,-342,-252)">
      <g transform="matrix(1,0,0,1,-2830.18,-70)">
        <path d="M3014.9,689c-1.1,0.3-2.2,1.5-3,2.5c-0.7,1-1.3,2.6-1.2,3l13.6-2.1l1.2-27.1c0,0-2.3-3.7-4.9-7.5 c-2.6-0.5-5.2-2.8-6.7-4.6c-4.2,1.4-9,0.8-12.5-2c-2.8-2.3-5.3-8.7,0.1-9.9c5.5-1.2,10.1-1.1,15.5,0.6c6.2,2,1.8,8.6-1.6,10.5 c3.1,3.3,8.7,7.9,10.8,1.1c-4.1-2.2-2.9-5.7,1-7.4c0-1.6,0-3.4-0.1-5.4c-4,0.3-9.4-0.8-11.7-4.4c-1.7-2.6-0.7-5.9,2.5-6.5 c3.8-0.7,15.1-2.5,18.4,0.8c4.7,4.7-5.5,9.8-8.7,10.1c0.6,0.9,0.6,2.9,0.4,5.1c1.3-0.5,5.9,0.7,7,0.8c2.7,0.2,5.4,0,8.1,0.3 c4.7,0.5,3.6,5.2-0.1,6.6c-5.6,2-10.2,2.9-15.8,0.5c-0.1,2.3-2.2,4.1-2.4,6.3c-0.1,1.1,0.5,2.6,1.5,3.1c0.9,0.4,2.1-0.3,2.8-0.9 c2.3-2.1,4.3-4.4,5.9-7c0.7,0.3,0,1.5-0.3,2.2c-0.4,1.1-1.1,2-1.9,2.9c-1.8,2.1-3.7,4.3-5.9,5.9l1.6,25.4l12-1.9 c0,0-3.7-5.6-5-7.2c-0.8-1-2-1.8-3.4-2.6c1.5,0.4,2.6,1.4,3.7,2.3c1.5,1.3,5.2,5.5,5.2,5.5s-3.5-10.7-6.8-13.1 c4.8,2,7.9,13.6,8.1,14.3c0.9-2,1.5-6.4,2.9-7.7c-0.3,1.8-1.2,6.4-1.6,8.1l13.4-2.1l1.6-9c0,0-3.8,0.5-5.5-0.2 c-2.8-1.2-4.4-5.1-2-7.6c-1.8-1.5-2.3-7.3,1.9-8.6c1.5-4.1,10.6-4.1,11.2-0.8c4.1-0.9,9.4,3.3,6.7,5.7c3,1.9,3.9,6.9-0.1,8.8 c-0.1,2.2-3.2,4.9-5.4,2.9c-1.7,1.5-4.1,0.7-4.1,0.7v7.4l38.6-6l1.5-5.9l-27,0.3c8.9-6.2,12.6-12.5,18.6-22.2l-10.2-0.4 c7.2-6,9.5-11.8,13.9-20.2l-7.2-0.2c8.1-7.2,12.9-12.2,15.9-22.5c0.9,9.7,3.2,14.3,8.3,21l-6.7,0.6c2.8,9.4,5.4,15.2,13.9,20.4 l-9.4-0.3c7.6,8.7,10.4,15.7,20.3,21.2l-26.9,2l0.8,5.2l28.8-4.5c-0.4-1.6-1.2-3.6-2.2-5.2c1.2,0.8,2.1,3.4,2.8,5.1h0.4 c0.9-2.4-1.4-8.6,2.7-9.9c-3.1,1.7-1.3,8.9-1.6,9.8l0,0c0.3-0.9,0.3-2.1,1.3-3.5c0.8-1.1,1.9-1.6,3.7-2.4 c-2.2,0.9-2.8,1.6-3.5,2.9c-0.4,0.8-0.6,2-0.4,2.7l10.4-1.5l1.3-11.4c-1.9,0.6-4,1.2-6,0.9c-1.1-0.2-1.9-1.2-2.5-2.2 c-1.7-2.7-2.5-8.7-0.3-11.4c-5.7-0.6-3-13.2,2.9-15.1c-1.2-6.3,3.1-13.9,9.6-15.1c7.5-1.4,9.4,8.4,6.1,13.2 c4.2,4.2,3.9,10,2.7,13.4c2.6,4.3-0.7,13.9-4.7,16.5c-1.3,0.9-3.4,0.8-4.9,0.2c-0.7-0.3-1.2-0.8-1.8-1.2V673l33.6-5.2l0.2-4.9 L3170,664c5.8-3.3,6.9-6.3,10-11.7l-6.5,0.2c4.1-3.6,6.5-6.9,8.3-11.4h-5.1c2.3-3.7,4-6.9,6.1-12.5c5.1,4.3,5.9,7.3,8.6,11 l-4.3,0.4c5.1,2.5,7.2,5.7,10,9.3l-5.9,0.7c5.7,2.9,7.2,6.7,11.2,10.4l-15.2,2.2l1.3,4.6l16.6-2.6c-1.4-2.7-1.3-6-1.8-9 c1.4,1.3,2,5.8,2.9,7.8c0.2-0.7,3.3-12.5,8.1-14.5c-3.3,2.4-7,14.1-7,14.1s2.6-4.2,4.1-5.6c1.4-1.3,3.5-2.6,4.9-3 c-1.4,0.7-2.4,1.6-3.4,2.4c-2.6,2.7-4.2,6.4-4.5,7.3l10.7-1.7l-8.1,105.4l-116.5,11.4l105.4,9.5l-23,150.3l-6.3,4.2l-24.6-10.1 l-5.7,28.2l-7.3,5.1l-6.9-30.5l-6.4,5.8l-25.7-3.5l-9.7,12.3l-12-9.7l-3.4,35.5l-6.3-4.3l-10.3-37.2l-10.4,16.6l-11.9-0.5 l-9.1-5.5l-10.1-5.2l-11.1-69.1l94.1-13.3l-110.1,0.4l-12.1-157.4l14.5-2.3l1.2-5.1l-16.1,0.5c6.9-2.7,11.2-7.2,14.6-13.6l-9.5,2 l10.2-12.1l-5.7,0.5l12.2-12.6c-0.6,4.4,0.9,8.3,4.6,11.7l-5.5,0.1c2.2,4.4,5.1,7.9,11.1,10.2l-10.6-0.1 c7.1,3.3,11.8,7.9,15.6,11.7l-1.5,0.1c0,0-0.9,0.1-1,0.1l-15.8,1.4l0.5,4.8l17.9-2.7c0.1-1.1-1.5-2.1-1.5-2.1s1.8,0.5,2.2,2 c0.3-2.1-0.4-6.6,4.1-9.6c-3.6,3-3.2,8.2-3,9.4h0.1c0.1-0.9,0.7-2.6,1.8-3.6C3012.8,690.1,3013.7,689.3,3014.9,689 C3015,689,3015,689,3014.9,689L3014.9,689z M3160.9,860.5c-6,0.1-14.2,1.2-18.1,6.5l0.4-2.9l-25,4.4l4.1,28.8L3115,869l-9.6-0.3 l-1.9,21.9l-8.2-20.6l-10.5,2.9l1.9,25.2c-2-6.5-5.3-16.9-10.4-22.2c-4.7-4.9-19.4-2.7-22.5,3.3c-3,5.6-2.5,18.1-2.4,23.1 l-0.8-5.1l-15.3,3.9l0.8,6.3l7.2-2.2l0,0c-0.9,0.5,0,2.2-0.3,3.2s-0.6,1.9-1.2,2.7c-5.9,7.6-12.5-1-13.6-7.2 c-0.8-4.5,2-8.8,5.7-11.2c0.3-0.2,9-3.3,8.6,0.5l-0.2,0.3c0.1-0.1,0.1-0.2,0.2-0.3l5.9-10.5c-9.8-8.9-28.9-4.9-32.5,8.4 c-2.4,8.9-0.5,21.1,5.4,28.3c8.7,10.6,27.8,4.3,30.5-8.3c0.3,5.6,0.6,9.6,0.6,9.6l16.6,0.1c0,0-1.2-4.5-2.5-11.1l8.8-2.4 c0.6,6.4,0.6,11.9,0.6,11.9l12.2-3.4l0.1,1.8l13.7-2l-4.6-23.1l8.4,13.1l0,0l0,0l0.1,0.1v-0.3l3.9-14.5l0.8,23.6l14-3l0.2,1.6 l23.2-2.2l-0.3-1.2c9,1.5,22.9,0.8,23.5-11.1c0.1-2.2-0.2-4.5-0.6-6.7c-0.3-1.2-0.8-2.4-1.5-3.5c-3.5-5.6-15.7-5.2-15-13.2 c0.3-3.6,4.4-3.6,7.1-3.1c2.3,0.4,4.4,1.2,6.6,2.1l0.7-13.2c0,0-2.9-0.4-6.8-0.4L3160.9,860.5z M3144.1,881.5 c4.1,4.7,9.7,7.7,14.2,12c1.3,1.2,2.8,3.6,1.8,5.5c-0.6,1.1-2.1,1-3,0.9c-2.1-0.3-4.7-1.6-6.4-2.3c-0.7-0.3-1.3-0.7-1.9-1 l-2.6,8.4l-1.7-6.5l-12.9,2.5l-0.1-7.8l11.7-1.2L3144.1,881.5z M3074.3,901.1l-9.1,2.4c-0.4-2.5-0.9-6.2-1-8.7 c0-0.6-0.1-2.9,0.3-3.9c0.8-1.8,4.1-1.5,5.4-0.5C3072.9,892.6,3073.7,898,3074.3,901.1z M3141.1,876.4c0.4,1.2,0.9,2.3,1.6,3.3 l-11.5,2l0.3-3.9L3141.1,876.4z M3029.1,807.7c0.4,11-0.1,29.8,15,30.5c3.1,0.1,8.4-0.6,10.9-2.9c6-5.6,8.1-25.4,9.1-30.8 l3.3,0.4l-3.5,34.9l15-0.5l4-33.2l5.1,0.5l0.3-1.1v0.1l5.5,0.7l-3.5,34.9l15-0.5l4-33.2l3.9,0.4c-3.5,8.1-4.7,20.2,0.1,28.2 c6.3,10.5,18.9,9.1,25.5,0.5c3-3.9,5.3-9.8,6.4-14.5l-0.1,24.5h11.6l-0.3-25.2l8.7,25.8l8.2-0.3l11.7-45.8l-16.9-1.2l-4.4,28.2 l-4.3-30l-14.2,1.1v7.2c-3.8-13.2-21.9-13.2-29.4-3.1l2.6-8.6l-26.8,0.1l0.5-1.6l-28,0.1l-0.6,2.9l-12.9-4.9 c-0.1,5-0.2,10.1-0.4,15.1c0,0.2-0.4,13.6-2.8,15.8c-2.4,2.2-5.2-2.1-5.4-3.3c-0.7-3.5-0.9-7.2-0.6-10.8 c0.4-5.6,1.5-11.2,2.6-16.7l-13,3.3c-6.7-11.6-26.6-6.9-36.4-5l0.1,46.9c4.6,0.4,9.1,0.8,13.7,0.6c4.6-0.2,15.6-1,18.6-6.6 c3.6-6.6-1.3-18.3-10-17.1C3020.4,813,3025.7,811,3029.1,807.7z M3006.9,823.4c1,0.1,1.9,0.2,2.9,0.4c1.6,0.3,4,1,4,3 c0,2.3-2.5,3.8-4.5,4.3c-0.6,0.1-1.1,0.2-1.7,0.3c-0.2,0-0.5,0-0.7,0.1V823.4z M3133.7,814.4c-4.2-0.4-6.5,5-5.5,8.5 c0.4,1.5,1.5,3.2,3.2,3.5c1.2,0.3,2.5-0.4,3.3-1.4c0.5-0.6,0.9-1.2,1.2-1.9c1.2-2.3,2.2-7.3-1.2-8.5 C3134.4,814.5,3134,814.5,3133.7,814.4z M3005.7,799.6l0.4,9c-0.2,0.2,0.6,0,0.8,0c0.3,0,0.6-0.1,0.9-0.2 c0.8-0.3,1.6-0.7,2.2-1.3c1.6-1.5,2.8-4.1,2.7-6.3c-0.2-2.2-3.1-2-4.6-1.8c-0.4,0.1-0.8,0.1-1.2,0.2 C3006.5,799.4,3006.1,799.5,3005.7,799.6z M3145.8,691.8l0.1-1.7l-32.7,8.3l0.1-2.7l-34.8,7.3l1.3,7.3 c-10.4-14.2-35.6-2-46.7,2.9l0.6,2.5c-12.5-7.8-33.1-5.1-40.2,8.8c-7,13.8-3,35.5,6.5,46.9c9.1,10.8,31.1,9.3,38.7-3 c2.9-4.7,4-9.3,4.3-14.8l4.1,16.8l18.6-3.3l-2.7-13.9l14,13.4l10.9-11.8l1.6,8.6l33.4-4.4l-3.9-17l-20.3,4.4l-0.6-10.6l16.3-2.1 l1-17.1l-18.2,3.8l0.2-5.4l15.2-2.6v-0.6l0.3-7l12.4,53.9l32.1-5.5l-5.9-16.7l-17.7,4.8l-1-10.6l16.1-2.8l0.3-17l-18,4.5 l-0.1-5.4l13.8-3.1l-0.1-0.6l0.7-9.4l15.3,56.5l15.5-3.5l-10.1-32.1l18.6,30.9l10.9-2.8l2.3-62.8l-23,3.4l3.1,37.6l-15.2-37.4 L3145.8,691.8z M3039.5,738.8l-20.4,5.7l1.4,9.1l10-3.3h-0.1c-1.3,0.7,0.1,3.1-0.3,4.6c-0.3,1.4-0.9,2.7-1.6,4 c-0.4,0.7-0.9,1.3-1.5,1.9c-0.6,0.6-1.3,1.2-2.2,1.6c-7,2.8-12.3-2.4-14.5-8.8c-2.4-7.1-1.4-17.2,6.3-21c3.1-1.5,6.3-2.7,9.7-1.8 c0.3,0.1,2.9,1.3,2.4,2.5l-0.2,0.2c0.1-0.1,0.1-0.1,0.2-0.2l7.2-9L3039.5,738.8z M3082.3,723.5l4.4,24.3l-13.6-7.9 C3073.1,740,3080.3,732.3,3082.3,723.5z M3053.4,725.2l3.2,10.9c-0.1,0.3,0.7-0.1,1-0.2c0.4-0.1,0.7-0.3,1-0.5 c0.9-0.6,1.7-1.2,2.3-2.1c1.5-2.2,2.2-5.8,1.4-8.4c-1-3.2-5.8-1.1-7.6-0.3C3054.3,724.7,3053.9,724.9,3053.4,725.2z"></path>
      </g>
    </g>
  </g>
</svg> 